#N canvas 112 23 1280 654 10;
#X msg 2 37 \; pd dsp \$1;
#X obj 290 645 dac~;
#X obj 56 278 moses 1;
#X obj 56 298 bng 15 250 50 0 empty empty empty 17 7 0 10 -262144 -1
-1;
#X obj 95 298 bng 15 250 50 0 empty empty empty 17 7 0 10 -262144 -1
-1;
#X obj 56 260 tgl 15 0 empty empty empty 17 7 0 10 -262144 -1 -1 0
1;
#X obj 56 164 bng 15 250 50 0 empty empty empty 17 7 0 10 -262144 -1
-1;
#X obj 56 240 metro;
#X obj 86 203 hsl 128 15 2000 1 0 0 empty empty empty -2 -8 0 10 -227954
-1 -1 0 1;
#X floatatom 83 221 5 0 0 0 - - -, f 5;
#X msg 56 316 1;
#X msg 95 316 0;
#X msg 74 184 stop;
#X obj 2 428 +~;
#X obj 126 59 bng 25 250 50 0 empty empty Start 0 -5 0 10 -162280 -1
-1;
#X obj 174 60 bng 25 250 50 0 empty empty Stop 0 -5 0 10 -99865 -1
-1;
#X obj 2 361 osc~;
#X obj 251 365 osc~;
#X obj 56 364 line~;
#X obj 7 607 s~ AMPL1;
#X obj 287 481 r~ AMPL1;
#X obj 126 87 s START;
#X obj 56 144 r START;
#X obj 174 87 s STOP;
#X obj 74 164 r STOP;
#X obj 356 278 moses 1;
#X obj 356 298 bng 15 250 50 0 empty empty empty 17 7 0 10 -262144
-1 -1;
#X obj 395 298 bng 15 250 50 0 empty empty empty 17 7 0 10 -262144
-1 -1;
#X obj 356 260 tgl 15 0 empty empty empty 17 7 0 10 -262144 -1 -1 0
1;
#X obj 356 164 bng 15 250 50 0 empty empty empty 17 7 0 10 -262144
-1 -1;
#X obj 356 240 metro;
#X obj 386 203 hsl 128 15 2000 1 0 0 empty empty empty -2 -8 0 10 -227954
-1 -1 0 1;
#X floatatom 383 221 5 0 0 0 - - -, f 5;
#X msg 356 316 1;
#X msg 395 316 0;
#X msg 374 184 stop;
#X obj 356 364 line~;
#X obj 356 144 r START;
#X obj 374 164 r STOP;
#X obj 620 5 cnv 15 235 20 empty empty TremoToneTT3:DimitriPaile2011
15 10 0 12 -259648 -66577 0;
#X obj 300 391 *~;
#X obj 2 381 *~;
#X text 155 186 Freq1 Rate;
#X text 455 186 Freq2 Rate;
#X msg 56 344 \$1;
#X obj 158 253 hsl 128 15 2000 50 0 0 empty empty empty -2 -8 0 10
-164433 -1 -1 0 1;
#X floatatom 155 271 5 0 0 0 - - -, f 5;
#X obj 440 271 hsl 128 15 2000 50 0 0 empty empty empty -2 -8 0 10
-164433 -1 -1 0 1;
#X floatatom 437 289 5 0 0 0 - - -, f 5;
#X text 502 255 Freq2 Depth;
#X msg 356 344 \$1;
#X obj 2 448 +~;
#X obj 590 361 osc~;
#X obj 646 278 moses 1;
#X obj 646 298 bng 15 250 50 0 empty empty empty 17 7 0 10 -262144
-1 -1;
#X obj 685 298 bng 15 250 50 0 empty empty empty 17 7 0 10 -262144
-1 -1;
#X obj 646 260 tgl 15 0 empty empty empty 17 7 0 10 -262144 -1 -1 0
1;
#X obj 646 164 bng 15 250 50 0 empty empty empty 17 7 0 10 -262144
-1 -1;
#X obj 646 240 metro;
#X obj 676 203 hsl 128 15 2000 1 0 0 empty empty empty -2 -8 0 10 -227954
-1 -1 0 1;
#X floatatom 673 221 5 0 0 0 - - -, f 5;
#X msg 646 316 1;
#X msg 685 316 0;
#X msg 664 184 stop;
#X obj 646 364 line~;
#X obj 646 144 r START;
#X obj 664 164 r STOP;
#X obj 590 411 *~;
#X obj 730 271 hsl 128 15 2000 50 0 0 empty empty empty -2 -8 0 10
-164433 -1 -1 0 1;
#X floatatom 727 289 5 0 0 0 - - -, f 5;
#X msg 646 344 \$1;
#X text 792 255 Freq3 Depth;
#X text 745 186 Freq3 Rate;
#X obj 2 5 tgl 30 0 empty empty Audio:On/Off 33 26 0 10 -259648 -1
-1 1 1;
#X text 350 24 1 Turn Audio On;
#X text 350 34 2 Click Start;
#X text 350 14 INSTRUCTIONS:;
#X text 350 54 4 Move the sliders;
#X text 350 44 3 Turn up the Freq Vol knobs;
#X text 350 64 5 Turn up the MASTERvol knob;
#X text 350 74 6 To record \, click the three message boxes below 'Record
output' (bottom right corner). Rename file in the "open TT3..." message
box if you want.;
#X text 619 25 Version 1;
#X obj 670 586 s freq1;
#X obj 4 281 r freq1;
#X obj 649 400 vsl 15 128 0 127 0 0 empty empty empty 0 -9 0 10 -262144
-1 -1 9000 1;
#X obj 687 364 vsl 15 128 0 127 0 0 empty empty empty 0 -9 0 10 -262144
-1 -1 0 1;
#X obj 737 310 vsl 15 128 0 127 0 0 empty empty empty 0 -9 0 10 -262144
-1 -1 8000 1;
#X floatatom 719 462 5 0 0 0 - - -, f 5;
#X floatatom 762 522 5 0 0 0 - - -, f 5;
#X floatatom 597 544 5 0 0 0 - - -, f 5;
#X obj 12 332 *~;
#X obj 501 367 *~;
#X obj 781 455 s allManipulator;
#X obj 144 308 r allManipulator;
#X floatatom 544 298 5 0 0 0 - - -, f 5;
#X obj 158 340 /~ 80;
#X obj 329 540 hip~ 1;
#X obj 258 543 hip~ 1;
#X obj 347 590 clip~ -1 1;
#X obj 252 593 clip~ -1 1;
#X obj 257 287 r freq1;
#X obj 43 516 lop~;
#X obj 110 453 hsl 128 15 0 127 0 0 empty empty empty -2 -8 0 10 -262144
-1 -1 5900 1;
#X obj 112 551 mtof;
#X floatatom 122 494 5 0 0 0 - - -, f 5;
#X obj 171 475 s cutoff;
#X obj 116 519 r cutoff;
#X connect 2 0 3 0;
#X connect 2 1 4 0;
#X connect 3 0 10 0;
#X connect 3 0 45 0;
#X connect 4 0 11 0;
#X connect 4 0 45 0;
#X connect 5 0 2 0;
#X connect 6 0 7 0;
#X connect 7 0 5 0;
#X connect 8 0 9 0;
#X connect 9 0 7 1;
#X connect 10 0 44 0;
#X connect 11 0 44 0;
#X connect 12 0 7 0;
#X connect 13 0 51 0;
#X connect 14 0 21 0;
#X connect 15 0 23 0;
#X connect 16 0 41 0;
#X connect 17 0 40 0;
#X connect 18 0 41 1;
#X connect 20 0 97 0;
#X connect 20 0 96 0;
#X connect 22 0 6 0;
#X connect 24 0 12 0;
#X connect 25 0 26 0;
#X connect 25 1 27 0;
#X connect 26 0 33 0;
#X connect 26 0 47 0;
#X connect 27 0 34 0;
#X connect 27 0 47 0;
#X connect 28 0 25 0;
#X connect 29 0 30 0;
#X connect 30 0 28 0;
#X connect 31 0 32 0;
#X connect 32 0 30 1;
#X connect 33 0 50 0;
#X connect 34 0 50 0;
#X connect 35 0 30 0;
#X connect 36 0 40 1;
#X connect 37 0 29 0;
#X connect 38 0 35 0;
#X connect 40 0 13 1;
#X connect 41 0 13 0;
#X connect 44 0 18 0;
#X connect 45 0 46 0;
#X connect 46 0 18 1;
#X connect 47 0 48 0;
#X connect 48 0 36 1;
#X connect 50 0 36 0;
#X connect 51 0 101 0;
#X connect 52 0 67 0;
#X connect 53 0 54 0;
#X connect 53 1 55 0;
#X connect 54 0 61 0;
#X connect 54 0 68 0;
#X connect 55 0 62 0;
#X connect 55 0 68 0;
#X connect 56 0 53 0;
#X connect 57 0 58 0;
#X connect 58 0 56 0;
#X connect 59 0 60 0;
#X connect 60 0 58 1;
#X connect 61 0 70 0;
#X connect 62 0 70 0;
#X connect 63 0 58 0;
#X connect 64 0 67 1;
#X connect 65 0 57 0;
#X connect 66 0 63 0;
#X connect 67 0 51 1;
#X connect 68 0 69 0;
#X connect 69 0 64 1;
#X connect 70 0 64 0;
#X connect 73 0 0 0;
#X connect 83 0 90 0;
#X connect 84 0 82 0;
#X connect 84 0 89 0;
#X connect 85 0 88 0;
#X connect 86 0 87 0;
#X connect 86 0 92 0;
#X connect 90 0 16 0;
#X connect 91 0 52 0;
#X connect 93 0 95 0;
#X connect 94 0 91 1;
#X connect 95 0 90 1;
#X connect 95 0 91 0;
#X connect 96 0 98 0;
#X connect 97 0 99 0;
#X connect 98 0 1 1;
#X connect 99 0 1 0;
#X connect 100 0 17 0;
#X connect 101 0 19 0;
#X connect 102 0 104 0;
#X connect 102 0 105 0;
#X connect 103 0 101 1;
#X connect 106 0 103 0;
